<svg width="184" height="51" viewBox="0 0 184 51" fill="none" xmlns="http://www.w3.org/2000/svg">
<rect y="40.6172" width="72" height="10.1538" rx="5.07692" fill="#95EBCD"/>
<circle cx="32.3113" cy="23.0769" r="18.4615" stroke="#092D36" stroke-width="9.23077"/>
<circle cx="57.2338" cy="40.6166" r="5.53846" fill="#092D36"/>
<path d="M106.817 23.776C106.817 21.664 106.177 19.296 104.769 17.152C103.841 15.744 102.433 14.464 100.769 13.536C99.1046 12.64 96.8646 12.096 94.3686 12.096H86.9766V35.424H94.4326C97.7606 35.424 100.641 34.4 102.529 32.864C105.409 30.528 106.881 27.008 106.817 23.776ZM102.977 23.776C102.977 25.376 102.593 26.912 101.697 28.352C101.217 29.056 100.641 29.696 100.001 30.24C98.6886 31.296 96.6406 32.032 94.2726 32.032H90.6246V15.488H94.3046C96.6726 15.488 98.7206 16.224 100.033 17.344C102.017 19.072 103.041 21.6 102.977 23.776Z" fill="#092D36"/>
<path d="M110.715 16C111.163 16.448 111.707 16.704 112.347 16.704C113.019 16.704 113.563 16.448 114.011 16C114.459 15.552 114.683 15.008 114.683 14.368C114.683 13.696 114.459 13.152 114.011 12.704C113.563 12.224 113.019 12 112.347 12C111.707 12 111.163 12.224 110.715 12.704C110.267 13.152 110.011 13.696 110.011 14.368C110.011 15.008 110.267 15.552 110.715 16ZM110.587 35.424H114.139V19.52H110.587V35.424Z" fill="#092D36"/>
<path d="M133.525 28.512C133.557 28.192 133.589 27.808 133.589 27.424C133.589 24.96 132.885 22.976 131.509 21.472C130.133 19.936 128.245 19.2 125.813 19.2C124.309 19.2 122.933 19.584 121.717 20.32C120.469 21.056 119.541 22.048 118.837 23.328C118.165 24.576 117.813 25.952 117.813 27.456C117.717 32.064 121.557 35.808 126.133 35.712C127.221 35.712 128.213 35.52 129.205 35.168C131.125 34.432 132.725 32.864 133.301 30.912L130.325 29.984C129.717 31.808 128.149 32.672 126.101 32.672C123.797 32.704 121.493 30.88 121.429 28.512H133.525ZM125.845 22.24C126.965 22.24 127.925 22.56 128.725 23.2C129.493 23.872 129.909 24.736 129.973 25.824H121.621C121.781 24.736 122.261 23.872 123.029 23.232C123.797 22.56 124.757 22.24 125.845 22.24Z" fill="#092D36"/>
<path d="M140.896 33.632L136.544 43.264H140.32L151.232 19.52H147.392L142.816 29.952L137.856 19.52H133.824L140.896 33.632Z" fill="#092D36"/>
</svg>
